<svg id="visual" viewBox="0 0 960 540" width="960" height="540" xmlns="http://www.w3.org/2000/svg" xmlns:xlink="http://www.w3.org/1999/xlink" version="1.1"><rect x="0" y="0" width="960" height="540" fill="#001122"></rect><defs><linearGradient id="grad1_0" x1="43.8%" y1="0%" x2="100%" y2="100%"><stop offset="14.444444444444446%" stop-color="#a8a89e" stop-opacity="1"></stop><stop offset="85.55555555555554%" stop-color="#a8a89e" stop-opacity="1"></stop></linearGradient></defs><defs><linearGradient id="grad1_1" x1="43.8%" y1="0%" x2="100%" y2="100%"><stop offset="14.444444444444446%" stop-color="#a8a89e" stop-opacity="1"></stop><stop offset="85.55555555555554%" stop-color="#758177" stop-opacity="1"></stop></linearGradient></defs><defs><linearGradient id="grad1_2" x1="43.8%" y1="0%" x2="100%" y2="100%"><stop offset="14.444444444444446%" stop-color="#445b58" stop-opacity="1"></stop><stop offset="85.55555555555554%" stop-color="#758177" stop-opacity="1"></stop></linearGradient></defs><defs><linearGradient id="grad1_3" x1="43.8%" y1="0%" x2="100%" y2="100%"><stop offset="14.444444444444446%" stop-color="#445b58" stop-opacity="1"></stop><stop offset="85.55555555555554%" stop-color="#1b353e" stop-opacity="1"></stop></linearGradient></defs><defs><linearGradient id="grad1_4" x1="43.8%" y1="0%" x2="100%" y2="100%"><stop offset="14.444444444444446%" stop-color="#001122" stop-opacity="1"></stop><stop offset="85.55555555555554%" stop-color="#1b353e" stop-opacity="1"></stop></linearGradient></defs><defs><linearGradient id="grad2_0" x1="0%" y1="0%" x2="56.3%" y2="100%"><stop offset="14.444444444444446%" stop-color="#a8a89e" stop-opacity="1"></stop><stop offset="85.55555555555554%" stop-color="#a8a89e" stop-opacity="1"></stop></linearGradient></defs><defs><linearGradient id="grad2_1" x1="0%" y1="0%" x2="56.3%" y2="100%"><stop offset="14.444444444444446%" stop-color="#758177" stop-opacity="1"></stop><stop offset="85.55555555555554%" stop-color="#a8a89e" stop-opacity="1"></stop></linearGradient></defs><defs><linearGradient id="grad2_2" x1="0%" y1="0%" x2="56.3%" y2="100%"><stop offset="14.444444444444446%" stop-color="#758177" stop-opacity="1"></stop><stop offset="85.55555555555554%" stop-color="#445b58" stop-opacity="1"></stop></linearGradient></defs><defs><linearGradient id="grad2_3" x1="0%" y1="0%" x2="56.3%" y2="100%"><stop offset="14.444444444444446%" stop-color="#1b353e" stop-opacity="1"></stop><stop offset="85.55555555555554%" stop-color="#445b58" stop-opacity="1"></stop></linearGradient></defs><defs><linearGradient id="grad2_4" x1="0%" y1="0%" x2="56.3%" y2="100%"><stop offset="14.444444444444446%" stop-color="#1b353e" stop-opacity="1"></stop><stop offset="85.55555555555554%" stop-color="#001122" stop-opacity="1"></stop></linearGradient></defs><g transform="translate(960, 0)"><path d="M0 459C-59.2 452.1 -118.3 445.1 -175.7 424.1C-233 403 -288.4 367.9 -320.3 320.3C-352.2 272.7 -360.5 212.7 -379.7 157.3C-398.9 101.8 -428.9 50.9 -459 0L0 0Z" fill="#0b2331"></path><path d="M0 367.2C-47.3 361.6 -94.7 356.1 -140.5 339.2C-186.4 322.4 -230.7 294.3 -256.3 256.3C-281.8 218.2 -288.4 170.2 -303.8 125.8C-319.1 81.5 -343.2 40.7 -367.2 0L0 0Z" fill="#2e484b"></path><path d="M0 275.4C-35.5 271.2 -71 267.1 -105.4 254.4C-139.8 241.8 -173.1 220.7 -192.2 192.2C-211.3 163.6 -216.3 127.6 -227.8 94.4C-239.3 61.1 -257.4 30.5 -275.4 0L0 0Z" fill="#5b6e67"></path><path d="M0 183.6C-23.7 180.8 -47.3 178 -70.3 169.6C-93.2 161.2 -115.4 147.2 -128.1 128.1C-140.9 109.1 -144.2 85.1 -151.9 62.9C-159.6 40.7 -171.6 20.4 -183.6 0L0 0Z" fill="#8e9489"></path><path d="M0 91.8C-11.8 90.4 -23.7 89 -35.1 84.8C-46.6 80.6 -57.7 73.6 -64.1 64.1C-70.4 54.5 -72.1 42.5 -75.9 31.5C-79.8 20.4 -85.8 10.2 -91.8 0L0 0Z" fill="#a8a89e"></path></g><g transform="translate(0, 540)"><path d="M0 -459C64.2 -455.3 128.4 -451.5 174.5 -421.3C220.7 -391.1 248.8 -334.3 292 -292C335.3 -249.8 393.7 -221.9 424.1 -175.7C454.4 -129.4 456.7 -64.7 459 0L0 0Z" fill="#0b2331"></path><path d="M0 -367.2C51.3 -364.2 102.7 -361.2 139.6 -337C176.5 -312.8 199 -267.5 233.6 -233.6C268.2 -199.8 315 -177.5 339.2 -140.5C363.5 -103.5 365.4 -51.8 367.2 0L0 0Z" fill="#2e484b"></path><path d="M0 -275.4C38.5 -273.2 77 -270.9 104.7 -252.8C132.4 -234.6 149.3 -200.6 175.2 -175.2C201.2 -149.9 236.2 -133.1 254.4 -105.4C272.6 -77.6 274 -38.8 275.4 0L0 0Z" fill="#5b6e67"></path><path d="M0 -183.6C25.7 -182.1 51.3 -180.6 69.8 -168.5C88.3 -156.4 99.5 -133.7 116.8 -116.8C134.1 -99.9 157.5 -88.8 169.6 -70.3C181.8 -51.8 182.7 -25.9 183.6 0L0 0Z" fill="#8e9489"></path><path d="M0 -91.8C12.8 -91.1 25.7 -90.3 34.9 -84.3C44.1 -78.2 49.8 -66.9 58.4 -58.4C67.1 -50 78.7 -44.4 84.8 -35.1C90.9 -25.9 91.3 -12.9 91.8 0L0 0Z" fill="#a8a89e"></path></g></svg>